G75*
%MOIN*%
%OFA0B0*%
%FSLAX24Y24*%
%IPPOS*%
%LPD*%
%AMOC8*
5,1,8,0,0,1.08239X$1,22.5*
%
%ADD10OC8,0.0760*%
%ADD11C,0.0160*%
D10*
X001617Y001361D03*
X002617Y001361D03*
X003617Y001361D03*
X004617Y001361D03*
X005617Y001361D03*
X006617Y001361D03*
X004617Y005553D03*
X004617Y006676D03*
X005617Y006676D03*
X006617Y006676D03*
X003617Y006676D03*
X002617Y006676D03*
X001617Y006676D03*
D11*
X000410Y000410D02*
X007824Y000410D01*
X007824Y007627D01*
X000410Y007627D01*
X000410Y000410D01*
X000410Y000497D02*
X007824Y000497D01*
X007824Y000656D02*
X000410Y000656D01*
X000410Y000814D02*
X001344Y000814D01*
X001377Y000781D02*
X001857Y000781D01*
X002117Y001041D01*
X002377Y000781D01*
X002857Y000781D01*
X003117Y001041D01*
X003377Y000781D01*
X003857Y000781D01*
X004117Y001041D01*
X004377Y000781D01*
X004857Y000781D01*
X005197Y001121D01*
X005197Y001601D01*
X004857Y001941D01*
X004377Y001941D01*
X004117Y001681D01*
X003857Y001941D01*
X003377Y001941D01*
X003117Y001681D01*
X002857Y001941D01*
X002377Y001941D01*
X002117Y001681D01*
X001857Y001941D01*
X001377Y001941D01*
X001037Y001601D01*
X001037Y001121D01*
X001377Y000781D01*
X001185Y000973D02*
X000410Y000973D01*
X000410Y001131D02*
X001037Y001131D01*
X001037Y001290D02*
X000410Y001290D01*
X000410Y001448D02*
X001037Y001448D01*
X001042Y001607D02*
X000410Y001607D01*
X000410Y001765D02*
X001201Y001765D01*
X001359Y001924D02*
X000410Y001924D01*
X000410Y002082D02*
X007824Y002082D01*
X007824Y001924D02*
X006875Y001924D01*
X006857Y001941D02*
X006377Y001941D01*
X006037Y001601D01*
X006037Y001121D01*
X006377Y000781D01*
X006857Y000781D01*
X007197Y001121D01*
X007197Y001601D01*
X006857Y001941D01*
X007033Y001765D02*
X007824Y001765D01*
X007824Y001607D02*
X007192Y001607D01*
X007197Y001448D02*
X007824Y001448D01*
X007824Y001290D02*
X007197Y001290D01*
X007197Y001131D02*
X007824Y001131D01*
X007824Y000973D02*
X007049Y000973D01*
X006890Y000814D02*
X007824Y000814D01*
X007824Y002241D02*
X000410Y002241D01*
X000410Y002399D02*
X007824Y002399D01*
X007824Y002558D02*
X000410Y002558D01*
X000410Y002716D02*
X007824Y002716D01*
X007824Y002875D02*
X000410Y002875D01*
X000410Y003033D02*
X007824Y003033D01*
X007824Y003192D02*
X000410Y003192D01*
X000410Y003350D02*
X007824Y003350D01*
X007824Y003509D02*
X000410Y003509D01*
X000410Y003667D02*
X007824Y003667D01*
X007824Y003826D02*
X000410Y003826D01*
X000410Y003984D02*
X007824Y003984D01*
X007824Y004143D02*
X000410Y004143D01*
X000410Y004301D02*
X007824Y004301D01*
X007824Y004460D02*
X000410Y004460D01*
X000410Y004618D02*
X007824Y004618D01*
X007824Y004777D02*
X000410Y004777D01*
X000410Y004935D02*
X007824Y004935D01*
X007824Y005094D02*
X004978Y005094D01*
X004857Y004973D02*
X005197Y005313D01*
X005197Y005793D01*
X004876Y006115D01*
X005197Y006436D01*
X005197Y006916D01*
X004857Y007256D01*
X004377Y007256D01*
X004117Y006996D01*
X003857Y007256D01*
X003377Y007256D01*
X003117Y006996D01*
X002857Y007256D01*
X002377Y007256D01*
X002117Y006996D01*
X001857Y007256D01*
X001377Y007256D01*
X001037Y006916D01*
X001037Y006436D01*
X001377Y006096D01*
X001857Y006096D01*
X002117Y006356D01*
X002377Y006096D01*
X002857Y006096D01*
X003117Y006356D01*
X003377Y006096D01*
X003857Y006096D01*
X004117Y006356D01*
X004358Y006115D01*
X004037Y005793D01*
X004037Y005313D01*
X004377Y004973D01*
X004857Y004973D01*
X005136Y005252D02*
X007824Y005252D01*
X007824Y005411D02*
X005197Y005411D01*
X005197Y005569D02*
X007824Y005569D01*
X007824Y005728D02*
X005197Y005728D01*
X005104Y005886D02*
X007824Y005886D01*
X007824Y006045D02*
X004946Y006045D01*
X004964Y006203D02*
X006270Y006203D01*
X006377Y006096D02*
X006857Y006096D01*
X007197Y006436D01*
X007197Y006916D01*
X006857Y007256D01*
X006377Y007256D01*
X006037Y006916D01*
X006037Y006436D01*
X006377Y006096D01*
X006111Y006362D02*
X005123Y006362D01*
X005197Y006520D02*
X006037Y006520D01*
X006037Y006679D02*
X005197Y006679D01*
X005197Y006837D02*
X006037Y006837D01*
X006116Y006996D02*
X005118Y006996D01*
X004959Y007154D02*
X006275Y007154D01*
X006959Y007154D02*
X007824Y007154D01*
X007824Y007313D02*
X000410Y007313D01*
X000410Y007154D02*
X001275Y007154D01*
X001116Y006996D02*
X000410Y006996D01*
X000410Y006837D02*
X001037Y006837D01*
X001037Y006679D02*
X000410Y006679D01*
X000410Y006520D02*
X001037Y006520D01*
X001111Y006362D02*
X000410Y006362D01*
X000410Y006203D02*
X001270Y006203D01*
X001964Y006203D02*
X002270Y006203D01*
X002964Y006203D02*
X003270Y006203D01*
X003964Y006203D02*
X004270Y006203D01*
X004288Y006045D02*
X000410Y006045D01*
X000410Y005886D02*
X004130Y005886D01*
X004037Y005728D02*
X000410Y005728D01*
X000410Y005569D02*
X004037Y005569D01*
X004037Y005411D02*
X000410Y005411D01*
X000410Y005252D02*
X004098Y005252D01*
X004256Y005094D02*
X000410Y005094D01*
X001959Y007154D02*
X002275Y007154D01*
X002959Y007154D02*
X003275Y007154D01*
X003959Y007154D02*
X004275Y007154D01*
X006964Y006203D02*
X007824Y006203D01*
X007824Y006362D02*
X007123Y006362D01*
X007197Y006520D02*
X007824Y006520D01*
X007824Y006679D02*
X007197Y006679D01*
X007197Y006837D02*
X007824Y006837D01*
X007824Y006996D02*
X007118Y006996D01*
X007824Y007471D02*
X000410Y007471D01*
X001875Y001924D02*
X002359Y001924D01*
X002201Y001765D02*
X002033Y001765D01*
X002049Y000973D02*
X002185Y000973D01*
X002344Y000814D02*
X001890Y000814D01*
X002890Y000814D02*
X003344Y000814D01*
X003185Y000973D02*
X003049Y000973D01*
X003033Y001765D02*
X003201Y001765D01*
X003359Y001924D02*
X002875Y001924D01*
X003875Y001924D02*
X004359Y001924D01*
X004201Y001765D02*
X004033Y001765D01*
X004049Y000973D02*
X004185Y000973D01*
X004344Y000814D02*
X003890Y000814D01*
X004890Y000814D02*
X006344Y000814D01*
X006185Y000973D02*
X005049Y000973D01*
X005197Y001131D02*
X006037Y001131D01*
X006037Y001290D02*
X005197Y001290D01*
X005197Y001448D02*
X006037Y001448D01*
X006042Y001607D02*
X005192Y001607D01*
X005033Y001765D02*
X006201Y001765D01*
X006359Y001924D02*
X004875Y001924D01*
M02*
